<svg xmlns="http://www.w3.org/2000/svg" viewBox="0 0 100 100">
  <rect x="2" y="2" width="96" height="96" rx="22" fill="#07080a"/>
  <circle cx="50" cy="51" r="36" fill="none" stroke="#b37c00" stroke-width="3"/>
  <path d="M50,51 L50,15 A36,36 0 0 1 81.2,33 Z" fill="#ffb000" opacity="0.14"/>
  <g fill="#ffb000" transform="translate(50,51) scale(0.72) translate(-50,-51)">
    <path d="M50,20 C53.2,25 53.8,31 53.8,37.5 L53.8,62 C53.8,66.5 52.2,70 50,72.5 C47.8,70 46.2,66.5 46.2,62 L46.2,37.5 C46.2,31 46.8,25 50,20 Z"/>
    <path d="M53.5,39 L84,55.5 L84,62 L53.5,50.5 Z"/>
    <path d="M46.5,39 L16,55.5 L16,62 L46.5,50.5 Z"/>
    <path d="M53.4,61.5 L65.5,70.5 L65.5,75.5 L53.4,69.5 Z"/>
    <path d="M46.6,61.5 L34.5,70.5 L34.5,75.5 L46.6,69.5 Z"/>
  </g>
</svg>
